<?xml version="1.0" encoding="UTF-8"?>
<svg xmlns="http://www.w3.org/2000/svg" xmlns:xlink="http://www.w3.org/1999/xlink" width="16pt" height="16pt" viewBox="0 0 24 24" version="1.1">
<g id="surface1">
<path style=" stroke:none;fill-rule:nonzero;fill:rgb(59.215686%,59.215686%,59.215686%);fill-opacity:1;" d="M 22.628906 24 L 1.371094 24 C 0.613281 24 0 23.386719 0 22.628906 C 0 21.871094 0.613281 21.257812 1.371094 21.257812 L 22.628906 21.257812 C 23.386719 21.257812 24 21.871094 24 22.628906 C 24 23.386719 23.386719 24 22.628906 24 Z M 22.628906 24 "/>
<path style=" stroke:none;fill-rule:nonzero;fill:rgb(59.215686%,59.215686%,59.215686%);fill-opacity:1;" d="M 12.308594 13.027344 C 11.628906 13.027344 11.078125 12.476562 11.078125 11.796875 L 11.078125 1.230469 C 11.078125 0.550781 11.628906 0 12.308594 0 C 12.988281 0 13.539062 0.550781 13.539062 1.230469 L 13.539062 11.796875 C 13.539062 12.476562 12.988281 13.027344 12.308594 13.027344 Z M 12.308594 13.027344 "/>
<path style=" stroke:none;fill-rule:nonzero;fill:rgb(59.215686%,59.215686%,59.215686%);fill-opacity:1;" d="M 12.300781 18 L 4.246094 7.199219 L 20.355469 7.199219 Z M 12.300781 18 "/>
</g>
</svg>
