<svg height='16pt' width='16pt'  fill="#00a3d9" xmlns="http://www.w3.org/2000/svg" xmlns:xlink="http://www.w3.org/1999/xlink" style="isolation:isolate;" viewBox="0 0 64 64" x="0px" y="0px"><defs><clipPath id="a"><rect width="64" height="64"></rect></clipPath></defs><g clip-path="url(#a)"><path d=" M 36.482 61.617 C 34.063 62.084 30.407 62.137 27.914 61.705 C 27.3 61.599 26.662 61.028 26.488 60.43 L 24.871 54.866 C 24.697 54.268 24.119 53.53 23.58 53.219 L 17.721 49.837 C 17.182 49.526 16.256 49.404 15.655 49.565 L 10.136 51.044 C 9.535 51.205 8.721 50.949 8.32 50.474 C 6.778 48.648 5.026 45.606 4.223 43.425 C 4.008 42.841 4.183 42.003 4.613 41.553 L 8.763 37.226 C 9.193 36.777 9.543 35.907 9.543 35.284 L 9.543 28.519 C 9.543 27.897 9.186 27.034 8.746 26.594 L 4.609 22.458 C 4.169 22.018 3.987 21.187 4.202 20.603 C 4.394 20.082 5.118 18.53 5.988 17.024 C 6.877 15.485 7.882 14.054 8.262 13.601 C 8.661 13.124 9.476 12.857 10.081 13.006 L 15.985 14.456 C 16.589 14.604 17.518 14.472 18.057 14.161 L 23.915 10.778 C 24.454 10.467 25.023 9.726 25.184 9.125 L 26.676 3.556 C 26.837 2.955 27.466 2.383 28.08 2.279 C 30.335 1.899 33.808 1.902 36.123 2.318 C 36.735 2.428 37.363 3.005 37.524 3.606 L 39.003 9.125 C 39.164 9.726 39.733 10.467 40.271 10.778 L 46.13 14.161 C 46.669 14.472 47.595 14.594 48.196 14.433 L 53.715 12.954 C 54.316 12.793 55.13 13.048 55.531 13.523 C 57.139 15.427 58.927 18.57 59.742 20.852 C 59.951 21.439 59.764 22.272 59.324 22.712 L 55.441 26.594 C 55.001 27.034 54.644 27.897 54.644 28.519 L 54.644 35.284 C 54.644 35.907 55.001 36.769 55.441 37.209 L 59.382 41.15 C 59.822 41.59 60.011 42.424 59.804 43.011 C 59.575 43.661 58.804 45.343 57.863 46.974 C 56.974 48.513 55.969 49.944 55.589 50.398 C 55.189 50.874 54.376 51.131 53.775 50.97 L 48.532 49.565 C 47.93 49.404 47.005 49.526 46.466 49.837 L 40.607 53.219 C 40.068 53.53 39.5 54.271 39.339 54.872 L 37.881 60.314 C 37.72 60.915 37.093 61.499 36.482 61.617 Z  M 18.466 31.999 C 18.466 24.531 24.528 18.468 31.996 18.468 C 39.463 18.468 45.526 24.531 45.526 31.999 C 45.526 39.466 39.463 45.529 31.996 45.529 C 24.528 45.529 18.466 39.466 18.466 31.999 Z " fill-rule="evenodd" fill="#00a3d9"></path></g></svg>