<?xml version="1.0" encoding="UTF-8"?>
<svg xmlns="http://www.w3.org/2000/svg" xmlns:xlink="http://www.w3.org/1999/xlink" width="16pt" height="16pt" viewBox="0 0 24 24" version="1.1">
<g id="surface1">
<path style=" stroke:none;fill-rule:nonzero;fill:rgb(59.215686%,59.215686%,59.215686%);fill-opacity:1;" d="M 1.199219 10.800781 L 22.800781 10.800781 C 23.460938 10.800781 24 11.335938 24 12 C 24 12.664062 23.460938 13.199219 22.800781 13.199219 L 1.199219 13.199219 C 0.539062 13.199219 0 12.664062 0 12 C 0 11.335938 0.539062 10.800781 1.199219 10.800781 Z M 1.199219 10.800781 "/>
<path style=" stroke:none;fill-rule:nonzero;fill:rgb(59.215686%,59.215686%,59.215686%);fill-opacity:1;" d="M 12 0 C 12.664062 0 13.199219 0.539062 13.199219 1.199219 L 13.199219 22.800781 C 13.199219 23.460938 12.664062 24 12 24 C 11.335938 24 10.800781 23.460938 10.800781 22.800781 L 10.800781 1.199219 C 10.800781 0.539062 11.335938 0 12 0 Z M 12 0 "/>
</g>
</svg>
